name rise30.3154peak39.0474fall46.5389.mot
datacolumns 19
datarows 36
range 19.92659000000000 19.98492800000000
endheader
time	ground_force1_vx	ground_force1_vy	ground_force1_vz	ground_force1_px	ground_force1_py	ground_force1_pz	ground_force2_vx	ground_force2_vy	ground_force2_vz	ground_force2_px	ground_force2_py	ground_force2_pz	ground_torque1_x	ground_torque1_y	ground_torque1_z	ground_torque2_x	ground_torque2_y	ground_torque2_z	
19.92659000000000	-6.39609800000000	713.49708699999996	51.47205600000000	0.23294100000000	0.00000000000000	0.14796000000000	0.00000000000000	0.00000000000000	0.00000000000000	0.00000000000000	0.00000000000000	0.00000000000000	0.00000000000000	25.36246000000000	0.00000000000000	0.00000000000000	0.00000000000000	0.00000000000000	
19.92826400000000	-7.07780100000000	715.49034600000005	51.70081500000000	0.23172300000000	0.00000000000000	0.14802800000000	0.00000000000000	0.00000000000000	0.00000000000000	0.00000000000000	0.00000000000000	0.00000000000000	0.00000000000000	25.60078700000000	0.00000000000000	0.00000000000000	0.00000000000000	0.00000000000000	
19.92992500000000	-7.75864700000000	717.54944799999998	51.93160900000000	0.23054500000000	0.00000000000000	0.14809100000000	0.00000000000000	0.00000000000000	0.00000000000000	0.00000000000000	0.00000000000000	0.00000000000000	0.00000000000000	25.84206700000000	0.00000000000000	0.00000000000000	0.00000000000000	0.00000000000000	
19.93159600000000	-8.43834300000000	719.67219100000000	52.16416400000000	0.22940700000000	0.00000000000000	0.14815100000000	0.00000000000000	0.00000000000000	0.00000000000000	0.00000000000000	0.00000000000000	0.00000000000000	0.00000000000000	26.08601400000000	0.00000000000000	0.00000000000000	0.00000000000000	0.00000000000000	
19.93326400000000	-9.11659200000000	721.85630000000003	52.39822500000000	0.22831000000000	0.00000000000000	0.14820700000000	0.00000000000000	0.00000000000000	0.00000000000000	0.00000000000000	0.00000000000000	0.00000000000000	0.00000000000000	26.33233400000000	0.00000000000000	0.00000000000000	0.00000000000000	0.00000000000000	
19.93492800000000	-9.79308800000000	724.09943399999997	52.63355600000000	0.22725100000000	0.00000000000000	0.14825900000000	0.00000000000000	0.00000000000000	0.00000000000000	0.00000000000000	0.00000000000000	0.00000000000000	0.00000000000000	26.58073200000000	0.00000000000000	0.00000000000000	0.00000000000000	0.00000000000000	
19.93659800000000	-10.46752500000000	726.39918399999999	52.86993900000000	0.22623100000000	0.00000000000000	0.14830800000000	0.00000000000000	0.00000000000000	0.00000000000000	0.00000000000000	0.00000000000000	0.00000000000000	0.00000000000000	26.83090700000000	0.00000000000000	0.00000000000000	0.00000000000000	0.00000000000000	
19.93826600000000	-11.13958900000000	728.75307799999996	53.10717400000000	0.22524800000000	0.00000000000000	0.14835200000000	0.00000000000000	0.00000000000000	0.00000000000000	0.00000000000000	0.00000000000000	0.00000000000000	0.00000000000000	27.08255500000000	0.00000000000000	0.00000000000000	0.00000000000000	0.00000000000000	
19.93992300000000	-11.80897000000000	731.15857800000003	53.34508200000000	0.22430200000000	0.00000000000000	0.14839300000000	0.00000000000000	0.00000000000000	0.00000000000000	0.00000000000000	0.00000000000000	0.00000000000000	0.00000000000000	27.33537200000000	0.00000000000000	0.00000000000000	0.00000000000000	0.00000000000000	
19.94159500000000	-12.47535300000000	733.61308899999995	53.58350200000000	0.22339100000000	0.00000000000000	0.14843100000000	0.00000000000000	0.00000000000000	0.00000000000000	0.00000000000000	0.00000000000000	0.00000000000000	0.00000000000000	27.58905000000000	0.00000000000000	0.00000000000000	0.00000000000000	0.00000000000000	
19.94326500000000	-13.13842700000000	736.11395600000003	53.82229100000000	0.22251300000000	0.00000000000000	0.14846500000000	0.00000000000000	0.00000000000000	0.00000000000000	0.00000000000000	0.00000000000000	0.00000000000000	0.00000000000000	27.84328200000000	0.00000000000000	0.00000000000000	0.00000000000000	0.00000000000000	
19.94492500000000	-13.79788100000000	738.65846499999998	54.06132800000000	0.22166700000000	0.00000000000000	0.14849500000000	0.00000000000000	0.00000000000000	0.00000000000000	0.00000000000000	0.00000000000000	0.00000000000000	0.00000000000000	28.09775900000000	0.00000000000000	0.00000000000000	0.00000000000000	0.00000000000000	
19.94659300000000	-14.45340800000000	741.24384699999996	54.30051000000000	0.22085200000000	0.00000000000000	0.14852200000000	0.00000000000000	0.00000000000000	0.00000000000000	0.00000000000000	0.00000000000000	0.00000000000000	0.00000000000000	28.35217500000000	0.00000000000000	0.00000000000000	0.00000000000000	0.00000000000000	
19.94827000000000	-15.10470600000000	743.86728000000005	54.53975000000000	0.22006500000000	0.00000000000000	0.14854600000000	0.00000000000000	0.00000000000000	0.00000000000000	0.00000000000000	0.00000000000000	0.00000000000000	0.00000000000000	28.60622400000000	0.00000000000000	0.00000000000000	0.00000000000000	0.00000000000000	
19.94993000000000	-15.75147800000000	746.52588400000002	54.77898200000000	0.21930500000000	0.00000000000000	0.14856700000000	0.00000000000000	0.00000000000000	0.00000000000000	0.00000000000000	0.00000000000000	0.00000000000000	0.00000000000000	28.85960300000000	0.00000000000000	0.00000000000000	0.00000000000000	0.00000000000000	
19.95159000000000	-16.39343400000000	749.21673099999998	55.01815800000000	0.21857000000000	0.00000000000000	0.14858500000000	0.00000000000000	0.00000000000000	0.00000000000000	0.00000000000000	0.00000000000000	0.00000000000000	0.00000000000000	29.11201100000000	0.00000000000000	0.00000000000000	0.00000000000000	0.00000000000000	
19.95326500000000	-17.03029300000000	751.93683899999996	55.25724600000000	0.21785700000000	0.00000000000000	0.14860000000000	0.00000000000000	0.00000000000000	0.00000000000000	0.00000000000000	0.00000000000000	0.00000000000000	0.00000000000000	29.36315200000000	0.00000000000000	0.00000000000000	0.00000000000000	0.00000000000000	
19.95492900000000	-17.66178100000000	754.68317700000000	55.49623200000000	0.21716500000000	0.00000000000000	0.14861300000000	0.00000000000000	0.00000000000000	0.00000000000000	0.00000000000000	0.00000000000000	0.00000000000000	0.00000000000000	29.61273400000000	0.00000000000000	0.00000000000000	0.00000000000000	0.00000000000000	
19.95659600000000	-18.28763400000000	757.45266200000003	55.73511700000000	0.21649100000000	0.00000000000000	0.14862300000000	0.00000000000000	0.00000000000000	0.00000000000000	0.00000000000000	0.00000000000000	0.00000000000000	0.00000000000000	29.86047100000000	0.00000000000000	0.00000000000000	0.00000000000000	0.00000000000000	
19.95826700000000	-18.90760000000000	760.24216799999999	55.97391800000000	0.21583300000000	0.00000000000000	0.14863000000000	0.00000000000000	0.00000000000000	0.00000000000000	0.00000000000000	0.00000000000000	0.00000000000000	0.00000000000000	30.10608300000000	0.00000000000000	0.00000000000000	0.00000000000000	0.00000000000000	
19.95993200000000	-19.52143800000000	763.04851699999995	56.21266700000000	0.21519000000000	0.00000000000000	0.14863600000000	0.00000000000000	0.00000000000000	0.00000000000000	0.00000000000000	0.00000000000000	0.00000000000000	0.00000000000000	30.34929700000000	0.00000000000000	0.00000000000000	0.00000000000000	0.00000000000000	
19.96159600000000	-20.12891900000000	765.86848999999995	56.45140900000000	0.21455800000000	0.00000000000000	0.14863900000000	0.00000000000000	0.00000000000000	0.00000000000000	0.00000000000000	0.00000000000000	0.00000000000000	0.00000000000000	30.58984500000000	0.00000000000000	0.00000000000000	0.00000000000000	0.00000000000000	
19.96328200000000	-20.72982700000000	768.69881999999996	56.69020200000000	0.21393600000000	0.00000000000000	0.14864100000000	0.00000000000000	0.00000000000000	0.00000000000000	0.00000000000000	0.00000000000000	0.00000000000000	0.00000000000000	30.82747200000000	0.00000000000000	0.00000000000000	0.00000000000000	0.00000000000000	
19.96492500000000	-21.32396000000000	771.53620200000000	56.92911700000000	0.21332200000000	0.00000000000000	0.14864100000000	0.00000000000000	0.00000000000000	0.00000000000000	0.00000000000000	0.00000000000000	0.00000000000000	0.00000000000000	31.06192600000000	0.00000000000000	0.00000000000000	0.00000000000000	0.00000000000000	
19.96659100000000	-21.91112900000000	774.37728700000002	57.16823400000000	0.21271300000000	0.00000000000000	0.14863900000000	0.00000000000000	0.00000000000000	0.00000000000000	0.00000000000000	0.00000000000000	0.00000000000000	0.00000000000000	31.29297000000000	0.00000000000000	0.00000000000000	0.00000000000000	0.00000000000000	
19.96826600000000	-22.49116000000000	777.21869000000004	57.40764500000000	0.21210700000000	0.00000000000000	0.14863600000000	0.00000000000000	0.00000000000000	0.00000000000000	0.00000000000000	0.00000000000000	0.00000000000000	0.00000000000000	31.52037400000000	0.00000000000000	0.00000000000000	0.00000000000000	0.00000000000000	
19.96992400000000	-23.06389400000000	780.05698800000005	57.64744700000000	0.21150300000000	0.00000000000000	0.14863200000000	0.00000000000000	0.00000000000000	0.00000000000000	0.00000000000000	0.00000000000000	0.00000000000000	0.00000000000000	31.74391600000000	0.00000000000000	0.00000000000000	0.00000000000000	0.00000000000000	
19.97159800000000	-23.62918900000000	782.88872700000002	57.88774700000000	0.21089800000000	0.00000000000000	0.14862600000000	0.00000000000000	0.00000000000000	0.00000000000000	0.00000000000000	0.00000000000000	0.00000000000000	0.00000000000000	31.96339000000000	0.00000000000000	0.00000000000000	0.00000000000000	0.00000000000000	
19.97325700000000	-24.18691500000000	785.71042100000000	58.12865800000000	0.21029000000000	0.00000000000000	0.14862000000000	0.00000000000000	0.00000000000000	0.00000000000000	0.00000000000000	0.00000000000000	0.00000000000000	0.00000000000000	32.17859700000000	0.00000000000000	0.00000000000000	0.00000000000000	0.00000000000000	
19.97493100000000	-24.73695900000000	788.51855699999999	58.37029700000000	0.20967800000000	0.00000000000000	0.14861300000000	0.00000000000000	0.00000000000000	0.00000000000000	0.00000000000000	0.00000000000000	0.00000000000000	0.00000000000000	32.38935000000000	0.00000000000000	0.00000000000000	0.00000000000000	0.00000000000000	
19.97659400000000	-25.27922400000000	791.30959700000005	58.61278400000000	0.20905900000000	0.00000000000000	0.14860600000000	0.00000000000000	0.00000000000000	0.00000000000000	0.00000000000000	0.00000000000000	0.00000000000000	0.00000000000000	32.59547500000000	0.00000000000000	0.00000000000000	0.00000000000000	0.00000000000000	
19.97826900000000	-25.81362900000000	794.07998399999997	58.85624100000000	0.20843300000000	0.00000000000000	0.14859800000000	0.00000000000000	0.00000000000000	0.00000000000000	0.00000000000000	0.00000000000000	0.00000000000000	0.00000000000000	32.79680900000000	0.00000000000000	0.00000000000000	0.00000000000000	0.00000000000000	
19.97992300000000	-26.34010600000000	796.82614400000000	59.10079100000000	0.20779800000000	0.00000000000000	0.14859000000000	0.00000000000000	0.00000000000000	0.00000000000000	0.00000000000000	0.00000000000000	0.00000000000000	0.00000000000000	32.99320100000000	0.00000000000000	0.00000000000000	0.00000000000000	0.00000000000000	
19.98159000000000	-26.85860400000000	799.54449199999999	59.34655600000000	0.20715200000000	0.00000000000000	0.14858200000000	0.00000000000000	0.00000000000000	0.00000000000000	0.00000000000000	0.00000000000000	0.00000000000000	0.00000000000000	33.18451100000000	0.00000000000000	0.00000000000000	0.00000000000000	0.00000000000000	
19.98327400000000	-27.36908600000000	802.23143700000003	59.59365500000000	0.20649400000000	0.00000000000000	0.14857300000000	0.00000000000000	0.00000000000000	0.00000000000000	0.00000000000000	0.00000000000000	0.00000000000000	0.00000000000000	33.37061200000000	0.00000000000000	0.00000000000000	0.00000000000000	0.00000000000000	
19.98492800000000	-27.87153000000000	804.88338599999997	59.84220400000000	0.20582300000000	0.00000000000000	0.14856500000000	0.00000000000000	0.00000000000000	0.00000000000000	0.00000000000000	0.00000000000000	0.00000000000000	0.00000000000000	33.55138800000000	0.00000000000000	0.00000000000000	0.00000000000000	0.00000000000000	
